# xmcd
#
# Track frame offsets: 
#        150
#        13227
#        29392
#        41577
#        49445
#        68117
#        84500
#        95117
#        108380
#        121150
#        133745
#        148385
#        161422
#        183952
#        195765
#        207580
#        221265
#        233367
#        246307
#        264175
#
# Disc length: 3860 seconds
#
# Revision: 4
# Processed by: cddbd v1.5.2PL0 Copyright (c) Steve Scherf et al.
# Submitted via: ExactAudioCopy v0.95b4
#
DISCID=1c0f1214
DTITLE=Residents - Wormwood
DYEAR=1998
DGENRE=Rock
TTITLE0=In The Beginning
TTITLE1=Fire Fall
TTITLE2=They are the Meat
TTITLE3=Melancholy Clumps
TTITLE4=How to Get a Head
TTITLE5=Cain and Abel
TTITLE6=Mr. Misery
TTITLE7=Tent Peg in the Temple
TTITLE8=God's Magic Finger
TTITLE9=Spilling the Seed
TTITLE10=Dinah and the Unclean Skin
TTITLE11=Bathsheba Bathes
TTITLE12=Bridegroom of Blood
TTITLE13=Hanging by his Hair
TTITLE14=The Seven Ugly Cows
TTITLE15=Burn, Baby Burn
TTITLE16=KILL HIM!
TTITLE17=I Hate Heaven
TTITLE18=Judas Saves
TTITLE19=Revelation
EXTD=YEAR: 1998
EXTT0=
EXTT1=
EXTT2=
EXTT3=
EXTT4=
EXTT5=
EXTT6=
EXTT7=
EXTT8=
EXTT9=
EXTT10=
EXTT11=
EXTT12=
EXTT13=
EXTT14=
EXTT15=
EXTT16=
EXTT17=
EXTT18=
EXTT19=
PLAYORDER=
